<svg id="Layer_1" data-name="Layer 1" xmlns="http://www.w3.org/2000/svg" xmlns:xlink="http://www.w3.org/1999/xlink" viewBox="0 0 510.44 510"><defs><style>.cls-1{fill:url(#linear-gradient);}</style><linearGradient id="linear-gradient" x1="-640.98" y1="910.65" x2="636.99" y2="-49.68" gradientUnits="userSpaceOnUse"><stop offset="0.33" stop-color="#3c4c85"/><stop offset="0.36" stop-color="#425389" stop-opacity="0.96"/><stop offset="0.63" stop-color="#7893ac" stop-opacity="0.6"/><stop offset="0.86" stop-color="#99bbc2" stop-opacity="0.38"/><stop offset="1" stop-color="#a5c9ca" stop-opacity="0.3"/></linearGradient></defs><path class="cls-1" d="M508.56,443.13V403l-37.48-21.84v42.94l-34.9,20.35V402.27l-36.83,21.47L363.81,403V363.65a2.53,2.53,0,0,0,1.88-2.45,2.41,2.41,0,0,0-.1-.67l34.08-19.87.32-.18v-43.7l-36.82,21.47L327,297.16l-36.19,21.09-35.55-20.72V256.09l36.83-21.47-36.83-21.48V170.2l-37.15,21.66-.32.19v41.44l-33.12-19.31a2.39,2.39,0,0,0,.1-.66,2.55,2.55,0,0,0-1.88-2.46V129.5l35.86-20.91.33-.18V64.71L181.9,86.37l-.32.19v42.2L146,149.48l-34.91-20.35,35.23-20.54.32-.18V64.71L109.53,86.37l-.32.19V170.2L76.09,150.9a2.49,2.49,0,0,0-1.79-3.12V107.66L38.76,86.94l34.9-20.35.64.38v-.75l.65-.38-.65-.37V23.27L39.9,3.21a2.39,2.39,0,0,0,.1-.66A2.53,2.53,0,1,0,36.83,5V44.37L0,65.84l36.19,21.1L1,107.47l-.32.19v42.2l-.64.37.64.38V192.8l35.53,20.72L.94,234.06l-.33.18v43.7l37.16-21.66.32-.19V214.63l0,0v-43L71.87,152a2.6,2.6,0,0,0,1.15.66V192.8l35.54,20.72L73.34,234.05l-.32.19v42.21L39.29,296.11a2.51,2.51,0,0,0-1.79-.75,2.54,2.54,0,0,0-.64,5v81.51L.94,402.82.61,403v43.7l.06,0v41.48l36.19,21.1V510l.64-.38.65.38v-.75L74,488.33l.32-.19V444.45l-35,20.43a2.49,2.49,0,0,0-3.58,0L2.57,445.56l34.29-20v0l36.83-21.47,36.83,21.47v-43l35.84-20.89.32-.19V321.46a2.54,2.54,0,1,0-3.17-2.46,2.41,2.41,0,0,0,.1.67l-34.08,19.87-.32.18v41.43L74.33,360.82V277.17l35.52-20.71,36.83,21.47V235l33.75-19.68a2.42,2.42,0,0,0,1.15.66v40.12L216,276.15a2.39,2.39,0,0,0-.1.66,2.53,2.53,0,0,0,.1.67L181.9,297.35l-.32.18v84.34L148,401.43a2.53,2.53,0,1,0-2.69,3.93V446.7l36.19-21.1v41.45L219,488.89V445.2l-35.51-20.7,34.92-20.36,33.76,19.68a2.84,2.84,0,0,0-.09.66,2.53,2.53,0,1,0,3.16-2.45V340.47l35.55-20.72,34.9,20.35-35.22,20.54-.33.18V403l-.64.37.64.38v41.44l-35.86,20.91-.32.19V510l37.15-21.66.32-.19V446.71l34.9,20.35v.75l.65-.38,36.83,21.48V448a2.51,2.51,0,0,0,1.15-.66l33.75,19.68V510l36.19-21.1h0l37.15-21.66.32-.18V425.61l33.12,19.31a2.41,2.41,0,0,0-.1.67,2.53,2.53,0,1,0,3.17-2.46ZM110.49,87.31,145.39,67v40.7L110.49,128Zm-73.69,168L1.9,275.69V235l34.9-20.34ZM73.05,446.7v40.69l-34.9,20.35V469.13A2.55,2.55,0,0,0,40,466.67a2.39,2.39,0,0,0-.1-.66ZM36.86,469.13v38.61L2,487.39V446.7L35.07,466a2.84,2.84,0,0,0-.09.66A2.55,2.55,0,0,0,36.86,469.13Zm398-23.93L400,465.55V424.86l34.91-20.34Zm-72.38-2.07a2.6,2.6,0,0,0-1.15.66l-33.11-19.3,34.26-20Zm-34.9-61.21V341.23l33.12,19.3a2.5,2.5,0,0,0,1.78,3.12v38.62Zm34.9-23.18a2.51,2.51,0,0,0-1.15.66l-33.11-19.3,34.26-20ZM327,383l34.91,20.35L346,412.64l-19,11.1-34.91-20.35,15.86-9.24Zm.65,42.57,33.12,19.31a2.53,2.53,0,0,0-.1.67,2.39,2.39,0,0,0,.1.66l-33.12,19.31Zm71.09-85.89L365,359.4a2.56,2.56,0,0,0-1.15-.66V319.38L398.71,299ZM219.06,274.36V235.74L254,256.09v40.69l-33.12-19.3a2.5,2.5,0,0,0-1.78-3.12Zm0,4.91a2.56,2.56,0,0,0,1.14-.66l33.11,19.3-34.25,20ZM254.6,255l-34.9-20.34,17.12-10,17.78-10.37,34.9,20.35ZM219.06,192.8,254,172.45v40.69l-34.9,20.35ZM182.87,87.31,217.77,67v40.7L182.87,128ZM181.58,171l-11.42,6.66L146.68,191.3V150.61l34.9-20.35Zm-36.19,62.54-17.45-10.17-17.45-10.18V172.45l17.45,10.18,17.45,10.17Zm-34.9-103.23,34.9,20.35V191.3l-17.45-10.17L110.49,171ZM73,147.78a2.42,2.42,0,0,0-1.15.66L38.12,128.76V88.06L73,108.41ZM73,24v40.7L38.12,44.37V5a2.58,2.58,0,0,0,1.15-.67ZM37.47,45.49l34.9,20.35-34.25,20h0l-.65.38-.64-.38h0l-34.26-20ZM1.93,108.41l34.9-20.35v40.7L1.93,149.11Zm0,43,34.9,20.34v40.7L1.93,192.05Zm35.54,19.22L2.57,150.23,18.43,141l19-11.11,33.76,19.69a2.84,2.84,0,0,0-.09.66,3,3,0,0,0,.09.67ZM74.3,152.69a2.54,2.54,0,0,0,1.15-.66l33.76,19.67v40.69L74.3,192.05Zm0,82.3,34.91-20.35v40.7L74.3,275.68ZM38.15,300.36a2.5,2.5,0,0,0,1.78-3.12l33.12-19.3v40.69L38.15,339Zm34.9,60.46-34.9,20.35V340.48l34.9-20.35ZM36.8,424.1,1.9,444.45v-40.7l34.9-20.34Zm1.35-41.43,34.9-20.35V403l-34.9,20.35Zm72.34-42.19,33.76-19.68a2.47,2.47,0,0,0,1.14.66v39.36l-34.9,20.35Zm-1.26,42.92v40L74.33,403V362.32l34.88,20.33v.77Zm36.16-107.72-34.9-20.34v-40.7l17.45,10.18L145.39,235Zm1.29-42.19V192.8l19.94-11.63,15-8.72v38.61a2.55,2.55,0,0,0-1.88,2.46,2.39,2.39,0,0,0,.1.66Zm36.19,21.85V216a2.58,2.58,0,0,0,1.15-.67L217.77,235v39.37a2.42,2.42,0,0,0-1.15.66Zm0,42.94,33.75-19.67a2.6,2.6,0,0,0,1.15.66v39.36l-.64.37h0l-34.26,20Zm0,84.39,34.9-20.35V403l-34.9,20.35Zm34.9-21.85-34.9,20.35V340.48l34.9-20.35Zm-71.15,83.63V405.36a2.53,2.53,0,0,0,1.89-2.45,2,2,0,0,0,0-.24l33.05-19.26V424.1Zm71.09,42.19-34.9-20.34V425.6L217.71,446ZM254,422a2.51,2.51,0,0,0-1.15.66L219.06,403V362.32L254,382.67Zm-34.9-61.21V320.13L254,340.48v40.69Zm35.54-21.47L219.7,319l34.9-20.34.64.37h0l34.26,20ZM327,298.65,361.88,319l-34.26,20h0l-.64.37-.65-.37h0l-34.26-20Zm-35.55,62.92,34.9-20.34v40.69l-34.9,20.35ZM290.14,487.4l-34.9,20.35V467.06l34.9-20.35Zm1.29-42.19V404.52l34.9,20.34v40.7Zm36.83,21.47,33.11-19.3a2.51,2.51,0,0,0,1.15.66v38.62Zm35.55-23.55V404.52l34.9,20.34v40.7l-33.12-19.31a2.39,2.39,0,0,0,.1-.66A2.54,2.54,0,0,0,363.81,443.13ZM400,507.74V467.06l34.91-20.35v40.68Zm71.09-41.43-34.9,20.34V446l34.9-20.35Zm1.29-42.2V383.42l34.9,20.35v39.36a2.51,2.51,0,0,0-1.15.66Z" transform="translate(0)"/></svg>
